<?xml version="1.0" standalone="no"?>
<!DOCTYPE svg PUBLIC "-//W3C//DTD SVG 20010904//EN"
 "http://www.w3.org/TR/2001/REC-SVG-20010904/DTD/svg10.dtd">
<svg version="1.0" xmlns="http://www.w3.org/2000/svg"
 width="106.000000pt" height="108.000000pt" viewBox="0 0 106.000000 108.000000"
 preserveAspectRatio="xMidYMid meet">

<g transform="translate(0.000000,108.000000) scale(0.100000,-0.100000)"
fill="#000000" stroke="none">
<path d="M385 861 l-150 -58 -3 -143 c-4 -208 22 -291 126 -402 39 -42 147
-108 176 -108 6 0 38 13 71 29 103 49 179 141 216 261 16 55 19 89 17 215 l-3
149 -150 58 c-82 32 -150 58 -150 58 0 -1 -67 -27 -150 -59z m265 -65 l115
-44 0 -134 c-1 -128 -2 -136 -32 -198 -39 -83 -88 -139 -148 -169 -46 -23 -47
-23 -86 -6 -21 10 -59 38 -83 62 -83 82 -115 182 -116 360 l0 82 103 39 c56
21 109 42 117 45 8 3 15 6 15 6 0 1 52 -19 115 -43z"/>
<path d="M510 678 c-32 -12 -49 -37 -50 -73 0 -19 -7 -35 -20 -43 -17 -10 -20
-23 -20 -81 0 -93 8 -101 111 -101 114 0 119 4 119 95 0 64 -3 77 -20 87 -13
8 -20 24 -20 43 0 59 -47 93 -100 73z m62 -52 c16 -37 4 -56 -37 -56 -33 0
-35 2 -35 33 0 40 6 47 37 47 15 0 27 -9 35 -24z"/>
</g>
</svg>
